<svg id="Capa_1" enable-background="new 0 0 512 512" height="512" viewBox="0 0 512 512" width="512" xmlns="http://www.w3.org/2000/svg"><g><path d="m512 151-30 15 30 15v30h-152v120h152v30l-30 15 30 15v30h-152v91h-30l-15-30-15 30h-30v-91h-270v-30l30-15-30-15v-30h270v-331h30l15 30 15-30h30v121h152z" fill="#704c55"/><path d="m512 151-30 15 30 15v30h-152v120h152v30l-30 15 30 15v30h-152v91h-30l-15-30v-452l15-30h30v121h152z" fill="#5a344b"/><g><path d="m512 181v-30h-182v-151h-30v361h-300v30h300v121h30v-121h182v-30h-182v-180z" fill="#fff5f5"/></g><g><path d="m120 0c-66.301 0-120 54.699-120 121 0 52.2 22.2 69.3 56.1 115.201 45.901 62.999 51 75.298 63.9 94.799 9.3-14.099 19.799-34.501 63.9-94.799 33.9-45.901 56.1-63.001 56.1-115.201 0-66.301-53.699-121-120-121zm0 181c-32.999 0-60-27.001-60-60s27.001-60 60-60 60 27.001 60 60-27.001 60-60 60z" fill="#ff7b4a"/></g><path d="m330 181v180h182v30h-182v121h-15v-512h15v151h182v30z" fill="#efe2dd"/><path d="m240 121c0 52.2-22.2 69.3-56.1 115.201-44.101 60.298-54.6 80.7-63.9 94.799v-150c32.999 0 60-27.001 60-60s-27.001-60-60-60v-61c66.301 0 120 54.699 120 121z" fill="#ff435b"/></g></svg>