<?xml version="1.0" encoding="iso-8859-1"?>
<!-- Generator: Adobe Illustrator 19.0.0, SVG Export Plug-In . SVG Version: 6.00 Build 0)  -->
<svg version="1.1" id="Capa_1" xmlns="http://www.w3.org/2000/svg" xmlns:xlink="http://www.w3.org/1999/xlink" x="0px" y="0px"
	 viewBox="0 0 512.002 512.002" style="enable-background:new 0 0 512.002 512.002;" xml:space="preserve">
<g transform="translate(-1)">
	<g>
		<path style="fill:#D8625E;" d="M265.856,39.3l-25.738,15.014v-0.069l-78.391-45.25L27.015,87.594v29.89l13.008,7.472
			L27.015,236.836l-13.008-7.472v37.293L1,259.114v37.293l32.519,18.819l32.519,18.75c1.291,22.831,13.397,43.676,32.588,56.112
			c17.92,10.378,32.519,2.076,32.519-18.543l117.068,67.598c1.264,22.822,13.346,43.669,32.519,56.112
			c17.989,10.309,32.519,2.076,32.519-18.543l45.527,26.292l134.711-78.599v-37.017L513,375.975V182.038L265.856,39.3z"/>
		<polygon style="fill:#F6DB6D;" points="131.216,117.83 131.147,117.899 131.147,117.83 		"/>
		<g>
			<path style="fill:#445C71;" d="M131.145,371.547c0,20.618-14.599,28.921-32.519,18.543
				c-19.191-12.436-31.297-33.281-32.588-56.112c0-20.618,14.599-28.921,32.588-18.543
				C117.776,327.899,129.851,348.734,131.145,371.547z"/>
			<path style="fill:#445C71;" d="M313.251,476.714c0,20.618-14.53,28.852-32.519,18.543
				c-19.173-12.443-31.255-33.291-32.519-56.112c0-20.618,14.53-28.921,32.519-18.543
				C299.905,433.045,311.987,453.893,313.251,476.714z"/>
		</g>
		<polygon style="fill:#F6DB6D;" points="33.521,277.934 33.521,315.227 1.002,296.407 1.002,259.114 14.01,266.656 		"/>
		<path style="fill:#BDDCF3;" d="M98.626,173.666v89.6c0,8.234-5.881,11.555-13.008,7.403l-58.603-33.833l13.008-111.879
			l45.596,26.292C93.261,156.238,98.087,164.555,98.626,173.666z"/>
		<polygon style="fill:#F6DB6D;" points="378.291,260.567 378.291,454.574 358.78,443.296 131.147,311.837 131.147,117.899 
			131.216,117.83 		"/>
		<polygon style="fill:#EACA6F;" points="513.002,182.038 378.291,260.567 131.216,117.83 214.382,69.259 214.451,69.259 
			240.12,54.314 265.858,39.3 		"/>
		<polygon style="fill:#BFA057;" points="513.002,182.038 513.002,375.975 493.491,387.391 461.595,406.003 378.291,454.574 
			378.291,260.567 		"/>
	</g>
	<path style="fill:none;stroke:#000000;stroke-width:2;stroke-linecap:round;stroke-linejoin:round;" d="M214.745,294.102v-0.056"/>
	<g>
		<path style="fill:#F0F3F4;" d="M293.739,353.515l-78.058-45.067c-8.033-5.754-12.86-14.977-13.01-24.857V228.75
			c0-9.58,5.825-13.983,13.01-9.835l78.058,45.067c8.033,5.754,12.86,14.977,13.01,24.857v54.841
			C306.749,353.26,300.924,357.663,293.739,353.515z"/>
		<path style="fill:#DADCDA;" d="M206.483,217.975l48.227,83.162l48.229-27.474c-2.195-3.956-5.361-7.287-9.2-9.681l-78.058-45.067
			C213.007,216.972,209.495,216.613,206.483,217.975z"/>
		<path style="fill:#B4B4B3;" d="M267.72,293.726l-13.01,7.411l-13.01-22.433l-35.217,20.063c2.194,3.956,5.36,7.288,9.198,9.681
			l78.058,45.067c2.674,1.943,6.186,2.302,9.198,0.94L267.72,293.726z"/>
		<g>
			<polygon style="fill:#944143;" points="240.12,54.245 240.12,54.314 214.451,69.259 214.382,69.259 131.216,117.83 
				131.147,117.83 131.147,147.72 27.017,87.594 161.729,8.996 			"/>
			<polygon style="fill:#944143;" points="493.491,387.391 493.491,424.407 358.78,503.006 358.78,443.296 378.291,454.574 
				461.595,406.003 			"/>
		</g>
	</g>
</g>
<g>
</g>
<g>
</g>
<g>
</g>
<g>
</g>
<g>
</g>
<g>
</g>
<g>
</g>
<g>
</g>
<g>
</g>
<g>
</g>
<g>
</g>
<g>
</g>
<g>
</g>
<g>
</g>
<g>
</g>
</svg>
